<svg id="Layer_1" data-name="Layer 1" xmlns="http://www.w3.org/2000/svg" viewBox="0 0 653 122.13"><defs><style>.cls-1{fill:#fff;}</style></defs><title>Parks Logo-White</title><path class="cls-1" d="M260.79,43.79H258v9.06a7.11,7.11,0,0,1-5.67,0V28.66s2.62-1.26,7.81-1.26c7,0,10.53,3,10.53,7.92,0,5.15-3.79,8.47-9.83,8.47m0-12.23a9.08,9.08,0,0,0-2.8.3v7.77h2.36c3.35,0,4.64-2,4.64-4.05s-1.25-4-4.2-4"/><path class="cls-1" d="M274.05,39.48a2.89,2.89,0,0,1-1.73-3.39A14.26,14.26,0,0,1,279.79,34c4.94,0,7.77,2.36,7.77,6.52v8.76c0,.74.22,1.22,1.25,1.22a2.46,2.46,0,0,1,.45,1.47,3.7,3.7,0,0,1-3,1.69,3.23,3.23,0,0,1-3.1-2,9.8,9.8,0,0,1-5.7,2,6.11,6.11,0,0,1-6.3-6.18c0-2.69,1.44-5.56,7.48-5.56a16.1,16.1,0,0,1,3.53.37V40.84c0-2-1.07-2.87-3.2-2.87a9.16,9.16,0,0,0-4.9,1.51m2.5,7.7c0,1.51.92,2.57,2.88,2.57a3.81,3.81,0,0,0,2.72-1V45.41a8.14,8.14,0,0,0-2.36-.37c-2.39,0-3.24.7-3.24,2.14"/><path class="cls-1" d="M296,34.84V36.2A4.78,4.78,0,0,1,300,34a3.61,3.61,0,0,1,2.76,1.07c.59,1.32.07,3.24-1,3.72a4.31,4.31,0,0,0-2.51-.85,3,3,0,0,0-3.09,3.13V52.88a4.66,4.66,0,0,1-2.65.56,4.82,4.82,0,0,1-2.73-.56v-18a4.67,4.67,0,0,1,2.62-.55,4.85,4.85,0,0,1,2.61.55"/><path class="cls-1" d="M322.89,53a7.21,7.21,0,0,1-3.28.66,5.67,5.67,0,0,1-2.87-.55l-7-8.84v8.58a4.74,4.74,0,0,1-2.69.56,5.09,5.09,0,0,1-2.72-.56V26.37a6.93,6.93,0,0,1,5.41,0V43.6l6.85-9a5.16,5.16,0,0,1,2.72-.55,4.7,4.7,0,0,1,2.91.66l-6.78,8.91Z"/><path class="cls-1" d="M337.68,35.58A3.24,3.24,0,0,1,336,39,9.88,9.88,0,0,0,331.6,38c-1.65,0-2.57.66-2.57,1.69,0,.85.77,1.37,2.17,1.81l3.31,1.07c2.32.73,4.2,2.1,4.2,5,0,4-2.91,6.11-8.14,6.11-3.94,0-6.37-1.21-7.29-2.13A3.22,3.22,0,0,1,324.87,48a13,13,0,0,0,5.89,1.8c.81,0,2.57-.14,2.57-1.73,0-1-.92-1.58-2.2-2l-3.58-1.18c-2.35-.81-3.9-2.17-3.9-4.9,0-3.79,3.2-5.89,7.59-5.89a14,14,0,0,1,6.44,1.55"/><path class="cls-1" d="M346.12,49.57v1.91a7.39,7.39,0,0,1-4,6.48,1.58,1.58,0,0,1-1.73-2,4,4,0,0,0,2.17-2.5,2.23,2.23,0,0,1-2.21-.26V49.57a5.31,5.31,0,0,1,2.87-.55,5.55,5.55,0,0,1,2.88.55"/><path class="cls-1" d="M361.62,52.85a5.38,5.38,0,0,1-2.88.59,5,5,0,0,1-2.79-.59V28.62a20.42,20.42,0,0,1,7.54-1.22c7.48,0,10.83,3,10.83,8s-3.61,7.15-5,7.29l6.4,10a8.39,8.39,0,0,1-3.42.71,7.11,7.11,0,0,1-2.69-.52l-5-8.21a1.56,1.56,0,0,0-1.44-1h-1.54Zm2.5-21.29a9.83,9.83,0,0,0-2.5.3v7.73h3.49c2.58,0,3.54-2,3.54-4.05,0-2.25-1.44-4-4.53-4"/><path class="cls-1" d="M390.69,48.13a2.91,2.91,0,0,1,1.14,3.65,11.31,11.31,0,0,1-6.78,1.91c-5.78,0-9.35-3.39-9.35-9.75,0-6.67,3.94-9.91,9.28-9.91S393,37.31,393,43.2v2.28H381.12c.11,2.47,1.62,4.27,4.23,4.27a11.16,11.16,0,0,0,5.34-1.62m-3.06-5.7c0-2.58-.77-4.46-3.09-4.46s-3.42,1.66-3.42,4.46Z"/><path class="cls-1" d="M404.14,49.75a7.37,7.37,0,0,0,3.76-1.18c1.1.45,1.54,2,1.17,3.32a10.3,10.3,0,0,1-6.11,1.8c-5.56,0-8.54-3.46-8.54-9.75,0-6.48,3.24-9.91,9.06-9.91a13.28,13.28,0,0,1,5.41,1.07,3.18,3.18,0,0,1-1.25,3.61,9,9,0,0,0-3.39-.74c-2.76,0-4.42,1.73-4.42,5.89s1.62,5.89,4.31,5.89"/><path class="cls-1" d="M415.94,34.84V36.2A4.8,4.8,0,0,1,420,34a3.61,3.61,0,0,1,2.76,1.07c.59,1.32.07,3.24-1,3.72a4.28,4.28,0,0,0-2.51-.85,3,3,0,0,0-3.09,3.13V52.88a4.62,4.62,0,0,1-2.65.56,4.77,4.77,0,0,1-2.72-.56v-18a4.61,4.61,0,0,1,2.61-.55,4.85,4.85,0,0,1,2.61.55"/><path class="cls-1" d="M438,48.13a2.92,2.92,0,0,1,1.14,3.65,11.31,11.31,0,0,1-6.78,1.91c-5.78,0-9.35-3.39-9.35-9.75,0-6.67,3.94-9.91,9.28-9.91s8.06,3.28,8.06,9.17v2.28H428.46c.11,2.47,1.62,4.27,4.24,4.27A11.16,11.16,0,0,0,438,48.13M435,42.43c0-2.58-.77-4.46-3.09-4.46s-3.43,1.66-3.43,4.46Z"/><path class="cls-1" d="M444.4,39.48a2.89,2.89,0,0,1-1.73-3.39A14.19,14.19,0,0,1,450.14,34c4.94,0,7.77,2.36,7.77,6.52v8.76c0,.74.22,1.22,1.25,1.22A2.49,2.49,0,0,1,459.6,52a3.68,3.68,0,0,1-3,1.69,3.23,3.23,0,0,1-3.09-2,9.8,9.8,0,0,1-5.7,2,6.1,6.1,0,0,1-6.3-6.18c0-2.69,1.43-5.56,7.47-5.56a16.14,16.14,0,0,1,3.54.37V40.84c0-2-1.07-2.87-3.21-2.87a9.12,9.12,0,0,0-4.89,1.51m2.5,7.7c0,1.51.92,2.57,2.87,2.57a3.81,3.81,0,0,0,2.73-1V45.41a8.14,8.14,0,0,0-2.36-.37c-2.39,0-3.24.7-3.24,2.14"/><path class="cls-1" d="M467.24,29.65v4.64h3.46a2.45,2.45,0,0,1,.55,1.77,2.61,2.61,0,0,1-.55,1.8h-3.46V47c0,2,.33,2.8,1.51,2.8a2.19,2.19,0,0,0,1.62-1c1.14.33,1.8,2.06,1.36,3.53-.33.33-1.32,1.36-4.23,1.36-4.09,0-5.64-1.91-5.64-6.48V37.86H460.5L459,37a7.92,7.92,0,0,1,.41-2.69h2.46V29.65a5.06,5.06,0,0,1,2.73-.55,4.85,4.85,0,0,1,2.65.55"/><path class="cls-1" d="M473.12,31.86V28.32a4.81,4.81,0,0,1,2.76-.59,4.6,4.6,0,0,1,2.8.59v3.54a4.63,4.63,0,0,1-2.73.59,5.11,5.11,0,0,1-2.83-.59m5.49,3v18a4.74,4.74,0,0,1-2.69.56,4.86,4.86,0,0,1-2.69-.56v-18a4.81,4.81,0,0,1,2.69-.55,5,5,0,0,1,2.69.55"/><path class="cls-1" d="M490,53.69c-5.74,0-9.24-3.24-9.24-9.83S484.22,34,490,34s9.28,3.24,9.28,9.83-3.54,9.83-9.28,9.83M490,38c-2.69,0-3.87,2.17-3.87,5.89s1.18,5.89,3.87,5.89,3.87-2.17,3.87-5.89S492.68,38,490,38"/><path class="cls-1" d="M518.26,40.47v8.91c0,.89.25,1.15,1.25,1.15A2.49,2.49,0,0,1,520,52s-.81,1.69-3.68,1.69c-2.65,0-3.39-1.54-3.39-1.54V41.21c0-2.13-.85-3.24-2.76-3.24a4.41,4.41,0,0,0-3.35,1.73V52.88a4.73,4.73,0,0,1-2.65.55,5.06,5.06,0,0,1-2.73-.55v-18a4.43,4.43,0,0,1,2.62-.59,4.64,4.64,0,0,1,2.65.59v1.58c.44-.66,2-2.43,5.48-2.43,3.61,0,6.12,1.95,6.12,6.44"/><path class="cls-1" d="M253.76,75.48A2.89,2.89,0,0,1,252,72.09,14.19,14.19,0,0,1,259.5,70c4.93,0,7.77,2.36,7.77,6.52v8.76c0,.74.22,1.22,1.25,1.22A2.49,2.49,0,0,1,269,88a3.68,3.68,0,0,1-3,1.69,3.21,3.21,0,0,1-3.09-2,9.81,9.81,0,0,1-5.71,2,6.1,6.1,0,0,1-6.29-6.18c0-2.69,1.43-5.56,7.47-5.56a16.14,16.14,0,0,1,3.54.37V76.84c0-2-1.07-2.87-3.21-2.87a9.12,9.12,0,0,0-4.89,1.51m2.5,7.7c0,1.51.92,2.57,2.87,2.57a3.81,3.81,0,0,0,2.73-1V81.41A8.2,8.2,0,0,0,259.5,81c-2.39,0-3.24.7-3.24,2.14"/><path class="cls-1" d="M287.34,76.47v8.91c0,.89.26,1.15,1.25,1.15A2.49,2.49,0,0,1,289,88s-.81,1.69-3.68,1.69c-2.65,0-3.38-1.54-3.38-1.54V77.21c0-2.13-.85-3.24-2.77-3.24a4.45,4.45,0,0,0-3.35,1.73V88.88a4.69,4.69,0,0,1-2.65.55,5,5,0,0,1-2.72-.55v-18a4.37,4.37,0,0,1,2.61-.59,4.6,4.6,0,0,1,2.65.59v1.58c.45-.66,2-2.43,5.49-2.43s6.11,2,6.11,6.44"/><path class="cls-1" d="M298.07,70a7,7,0,0,1,4.16,1.18V62.37a5.16,5.16,0,0,1,2.72-.55,4.93,4.93,0,0,1,2.69.55V85.61c0,.62.33.92,1.25.92a2.49,2.49,0,0,1,.44,1.47,3.64,3.64,0,0,1-3.27,1.69,3.14,3.14,0,0,1-3-1.8,8,8,0,0,1-5.45,1.8c-5.56,0-8-3.64-8-9.68,0-6.44,2.77-10,8.44-10m1.1,15.72a4,4,0,0,0,3.06-1.1v-9.5A4.3,4.3,0,0,0,299.1,74c-2.76,0-4.05,1.69-4.05,5.93s1.29,5.85,4.12,5.85"/><path class="cls-1" d="M318.24,88.85V64.25a7.11,7.11,0,0,1,5.67,0v9.54h8.14V64.25a5,5,0,0,1,2.8-.59,5.19,5.19,0,0,1,2.87.59v24.6a5.12,5.12,0,0,1-2.8.58,5.26,5.26,0,0,1-2.87-.58V77.91h-8.14V88.85a5.1,5.1,0,0,1-2.79.58,5.45,5.45,0,0,1-2.88-.58"/><path class="cls-1" d="M341,67.86V64.32a4.87,4.87,0,0,1,2.76-.58,4.69,4.69,0,0,1,2.8.58v3.54a4.63,4.63,0,0,1-2.73.59,5.11,5.11,0,0,1-2.83-.59m5.48,3v18a4.77,4.77,0,0,1-2.69.55,4.91,4.91,0,0,1-2.68-.55v-18a4.75,4.75,0,0,1,2.68-.55,4.93,4.93,0,0,1,2.69.55"/><path class="cls-1" d="M362.87,71.58A3.23,3.23,0,0,1,361.21,75,9.87,9.87,0,0,0,356.8,74c-1.66,0-2.58.66-2.58,1.69,0,.85.77,1.37,2.17,1.81l3.32,1.07c2.32.73,4.19,2.1,4.19,5,0,4-2.91,6.11-8.13,6.11-3.94,0-6.37-1.21-7.29-2.13A3.22,3.22,0,0,1,350.06,84a13,13,0,0,0,5.89,1.8c.81,0,2.58-.14,2.58-1.73,0-1-.92-1.58-2.21-2l-3.57-1.18c-2.36-.81-3.91-2.17-3.91-4.9,0-3.79,3.21-5.89,7.59-5.89a14,14,0,0,1,6.44,1.55"/><path class="cls-1" d="M372.36,65.65v4.64h3.47a2.45,2.45,0,0,1,.55,1.77,2.61,2.61,0,0,1-.55,1.8h-3.47V83c0,2,.34,2.8,1.51,2.8a2.17,2.17,0,0,0,1.62-1c1.15.33,1.81,2.06,1.37,3.53-.34.33-1.33,1.36-4.24,1.36-4.08,0-5.63-1.91-5.63-6.48V73.86h-1.36L364.12,73a8.1,8.1,0,0,1,.4-2.69H367V65.65a5,5,0,0,1,2.72-.55,4.85,4.85,0,0,1,2.65.55"/><path class="cls-1" d="M386.47,89.69c-5.75,0-9.25-3.24-9.25-9.83s3.5-9.83,9.25-9.83,9.27,3.24,9.27,9.83-3.53,9.83-9.27,9.83m0-15.72c-2.69,0-3.87,2.17-3.87,5.89s1.18,5.89,3.87,5.89,3.86-2.17,3.86-5.89S389.19,74,386.47,74"/><path class="cls-1" d="M403.12,70.84V72.2a4.8,4.8,0,0,1,4-2.17,3.61,3.61,0,0,1,2.76,1.07c.59,1.32.07,3.24-1,3.72a4.26,4.26,0,0,0-2.5-.85,3,3,0,0,0-3.1,3.13V88.88a4.69,4.69,0,0,1-2.65.55,4.83,4.83,0,0,1-2.72-.55v-18a4.61,4.61,0,0,1,2.61-.55,4.85,4.85,0,0,1,2.61.55"/><path class="cls-1" d="M411.33,67.86V64.32a4.87,4.87,0,0,1,2.76-.58,4.65,4.65,0,0,1,2.8.58v3.54a4.63,4.63,0,0,1-2.73.59,5.11,5.11,0,0,1-2.83-.59m5.48,3v18a4.75,4.75,0,0,1-2.68.55,4.93,4.93,0,0,1-2.69-.55v-18a4.77,4.77,0,0,1,2.69-.55,4.91,4.91,0,0,1,2.68.55"/><path class="cls-1" d="M428.65,85.75a7.31,7.31,0,0,0,3.75-1.18c1.11.45,1.55,2,1.18,3.32a10.3,10.3,0,0,1-6.11,1.8c-5.56,0-8.54-3.46-8.54-9.75,0-6.48,3.24-9.91,9.05-9.91a13.36,13.36,0,0,1,5.42,1.07,3.19,3.19,0,0,1-1.25,3.61,9,9,0,0,0-3.39-.74c-2.76,0-4.42,1.73-4.42,5.89s1.62,5.89,4.31,5.89"/><path class="cls-1" d="M451.22,79.79h-2.84v9.06a7.11,7.11,0,0,1-5.67,0V64.66s2.62-1.26,7.81-1.26c7,0,10.53,3,10.53,7.92,0,5.15-3.79,8.47-9.83,8.47m0-12.23a9.08,9.08,0,0,0-2.8.3v7.77h2.36c3.35,0,4.64-1.95,4.64-4s-1.25-4-4.2-4"/><path class="cls-1" d="M467.92,70.84V72.2a4.77,4.77,0,0,1,4-2.17,3.58,3.58,0,0,1,2.76,1.07c.59,1.32.08,3.24-1,3.72a4.26,4.26,0,0,0-2.5-.85,3,3,0,0,0-3.09,3.13V88.88a4.73,4.73,0,0,1-2.65.55,4.88,4.88,0,0,1-2.73-.55v-18a4.65,4.65,0,0,1,2.61-.55,4.87,4.87,0,0,1,2.62.55"/><path class="cls-1" d="M490,84.13a2.91,2.91,0,0,1,1.14,3.65,11.29,11.29,0,0,1-6.77,1.91c-5.79,0-9.36-3.39-9.36-9.76,0-6.66,3.94-9.9,9.28-9.9s8.07,3.28,8.07,9.17v2.28H480.44c.11,2.47,1.62,4.27,4.23,4.27A11.16,11.16,0,0,0,490,84.13M487,78.43c0-2.58-.77-4.46-3.09-4.46s-3.42,1.66-3.42,4.46Z"/><path class="cls-1" d="M507.86,71.58A3.24,3.24,0,0,1,506.21,75,10,10,0,0,0,501.79,74c-1.66,0-2.58.66-2.58,1.69,0,.85.77,1.37,2.17,1.81l3.32,1.07c2.32.73,4.19,2.1,4.19,5,0,4-2.91,6.11-8.13,6.11-3.94,0-6.37-1.21-7.29-2.13A3.22,3.22,0,0,1,495.05,84a13,13,0,0,0,5.89,1.8c.81,0,2.58-.14,2.58-1.73,0-1-.92-1.58-2.21-2l-3.57-1.18c-2.36-.81-3.91-2.17-3.91-4.9,0-3.79,3.21-5.89,7.59-5.89a14,14,0,0,1,6.44,1.55"/><path class="cls-1" d="M525,84.13a2.92,2.92,0,0,1,1.15,3.65,11.31,11.31,0,0,1-6.78,1.91c-5.78,0-9.35-3.39-9.35-9.76,0-6.66,3.94-9.9,9.28-9.9s8.06,3.28,8.06,9.17v2.28H515.42c.11,2.47,1.62,4.27,4.24,4.27A11.1,11.1,0,0,0,525,84.13m-3-5.7c0-2.58-.77-4.46-3.1-4.46s-3.42,1.66-3.42,4.46Z"/><path class="cls-1" d="M534.75,70.84V72.2a4.8,4.8,0,0,1,4-2.17,3.61,3.61,0,0,1,2.76,1.07c.59,1.32.07,3.24-1,3.72A4.28,4.28,0,0,0,538,74a3,3,0,0,0-3.09,3.13V88.88a4.69,4.69,0,0,1-2.65.55,4.83,4.83,0,0,1-2.72-.55v-18a4.61,4.61,0,0,1,2.61-.55,4.85,4.85,0,0,1,2.61.55"/><path class="cls-1" d="M561.67,70.91l-7.15,18a7,7,0,0,1-5.26,0l-7.18-18a5.12,5.12,0,0,1,2.87-.62,4.78,4.78,0,0,1,2.54.51l3.24,8.1a40.71,40.71,0,0,1,1.18,4.16,37.75,37.75,0,0,1,1.18-4.16l3.24-8.1a4.75,4.75,0,0,1,2.5-.51,5.25,5.25,0,0,1,2.84.62"/><path class="cls-1" d="M564.56,75.48a2.89,2.89,0,0,1-1.73-3.39A14.27,14.27,0,0,1,570.31,70c4.93,0,7.77,2.36,7.77,6.52v8.76c0,.74.21,1.22,1.25,1.22a2.49,2.49,0,0,1,.44,1.47,3.7,3.7,0,0,1-3,1.69,3.21,3.21,0,0,1-3.09-2,9.81,9.81,0,0,1-5.71,2,6.11,6.11,0,0,1-6.3-6.18c0-2.69,1.44-5.56,7.48-5.56a15.92,15.92,0,0,1,3.53.37V76.84c0-2-1.07-2.87-3.2-2.87a9.16,9.16,0,0,0-4.9,1.51m2.51,7.7c0,1.51.92,2.57,2.87,2.57a3.81,3.81,0,0,0,2.72-1V81.41a8.12,8.12,0,0,0-2.35-.37c-2.4,0-3.24.7-3.24,2.14"/><path class="cls-1" d="M587.4,65.65v4.64h3.47a2.45,2.45,0,0,1,.55,1.77,2.61,2.61,0,0,1-.55,1.8H587.4V83c0,2,.34,2.8,1.51,2.8a2.17,2.17,0,0,0,1.62-1c1.15.33,1.81,2.06,1.37,3.53-.34.33-1.33,1.36-4.24,1.36-4.08,0-5.63-1.91-5.63-6.48V73.86h-1.36L579.16,73a8.1,8.1,0,0,1,.4-2.69H582V65.65a5,5,0,0,1,2.72-.55,4.85,4.85,0,0,1,2.65.55"/><path class="cls-1" d="M593.28,67.86V64.32a4.93,4.93,0,0,1,2.77-.58,4.63,4.63,0,0,1,2.79.58v3.54a4.58,4.58,0,0,1-2.72.59,5.13,5.13,0,0,1-2.84-.59m5.49,3v18a4.81,4.81,0,0,1-2.69.55,5,5,0,0,1-2.69-.55v-18a4.81,4.81,0,0,1,2.69-.55,4.93,4.93,0,0,1,2.69.55"/><path class="cls-1" d="M610.12,89.69c-5.74,0-9.24-3.24-9.24-9.83s3.5-9.83,9.24-9.83,9.28,3.24,9.28,9.83-3.53,9.83-9.28,9.83m0-15.72c-2.68,0-3.86,2.17-3.86,5.89s1.18,5.89,3.86,5.89S614,83.58,614,79.86,612.85,74,610.12,74"/><path class="cls-1" d="M638.42,76.47v8.91c0,.89.26,1.15,1.25,1.15a2.49,2.49,0,0,1,.44,1.47s-.81,1.69-3.68,1.69c-2.65,0-3.39-1.54-3.39-1.54V77.21c0-2.13-.84-3.24-2.76-3.24a4.41,4.41,0,0,0-3.35,1.73V88.88a4.69,4.69,0,0,1-2.65.55,5,5,0,0,1-2.72-.55v-18a4.37,4.37,0,0,1,2.61-.59,4.6,4.6,0,0,1,2.65.59v1.58c.44-.66,2-2.43,5.49-2.43,3.61,0,6.11,2,6.11,6.44"/><path class="cls-1" d="M237.42,107.12a1.15,1.15,0,0,1-1.14-1.14V12.08a1.14,1.14,0,0,1,2.28,0V106a1.15,1.15,0,0,1-1.14,1.14"/><path class="cls-1" d="M104,107.11a1.56,1.56,0,0,1-.73-.19,1.44,1.44,0,0,1-.73-.94,1.86,1.86,0,0,1,.35-1.47l.1-.16a4.06,4.06,0,0,1,.36-.46,1.84,1.84,0,0,1,.42-.36,4.43,4.43,0,0,1,0-1.31,3.29,3.29,0,0,1,.19-.81c0-.1.06-.19.08-.28A15.19,15.19,0,0,0,104.4,99c0-.62,0-.63-.07-.76a4.55,4.55,0,0,0-1.49-1c-.29-.15-.57-.3-.84-.46l-5.78-3.53c-.14-.09-.37-.21-.67-.36-1.91-1-3.16-1.71-3.37-2.75a3.84,3.84,0,0,0-.3-.68l-.41,0a3.4,3.4,0,0,1-2.33-.92L88.7,88a5.7,5.7,0,0,1-2.08-4.3,7.06,7.06,0,0,1,0-.92c0-1,0-1.55-.4-1.94a2.73,2.73,0,0,0-.84-.46,4.81,4.81,0,0,1-1.4-.75,4.5,4.5,0,0,1-.48-.49,2.06,2.06,0,0,0-.69-.62,15.75,15.75,0,0,0-5-.56l-60.31,0a9.82,9.82,0,0,0-1,.08,2.62,2.62,0,0,1-2.23-.42,2.89,2.89,0,0,1-.74-2.26v-4.2a1.16,1.16,0,0,1,.18-.63,5.45,5.45,0,0,1,2.59-1.79c.35-.17.72-.33.92-.46a9.55,9.55,0,0,0,1.47-1.28c.37-.37.76-.74,1.16-1.08a11.79,11.79,0,0,1,1.91-1.17,8,8,0,0,0,1.43-.87,3.49,3.49,0,0,0,.67-1,5.88,5.88,0,0,1,.95-1.4,6.48,6.48,0,0,1,1.57-1.1c1.18-.66,1.15-.73,1-1.19-.09-.2-.18-.38-.25-.55a4,4,0,0,1-.44-2.71c0-.14.05-.27.07-.41a2.61,2.61,0,0,0,.08-.83.81.81,0,0,0-.37,0,1.84,1.84,0,0,1-1.46-.52,2.2,2.2,0,0,1-.37-1.81,4.26,4.26,0,0,0,0-1.25c-.14-1.36.31-2,1.9-2.62,4.71-1.88,8.54-2.51,12-2a3,3,0,0,0,.82-.09,4.51,4.51,0,0,1,1.76-.1l3.71.7a5.88,5.88,0,0,1,3.4,1.63c.58.52.81.47,1.82.11a8.66,8.66,0,0,1,1.78-.47,13.41,13.41,0,0,1,3.24,0c.47,0,.94.08,1.41.1a5.17,5.17,0,0,0,1.83-.46c.28-.1.57-.21.84-.29a10.57,10.57,0,0,1,1.72-.36c.26,0,.53-.08.81-.14,0,0,0-.07,0-.1s.18-.31.3-.48A5.84,5.84,0,0,1,63.75,45l.23-.15a8.21,8.21,0,0,0,1.59-1.18,3,3,0,0,1,2.5-.71,3,3,0,0,0,.71,0c.47-.19.06-1.61-.18-2.45A8.09,8.09,0,0,1,68.25,39a4.32,4.32,0,0,1,1.24-3c.46-.6.74-1,.73-1.36a.65.65,0,0,0-.06-.25,2,2,0,0,1-1.78.1,3.34,3.34,0,0,1-1.47-3.58,4.09,4.09,0,0,1,1.91-1.94l.23-.14a17.8,17.8,0,0,1,1.78-1A11.5,11.5,0,0,0,73,26.37c.26-.22.5-.45.73-.66a14.07,14.07,0,0,1,1.74-1.45,4.83,4.83,0,0,0,.11-.68,4.54,4.54,0,0,1,.25-1.13c.66-1.64,2.27-2.94,3.69-4.06.47-.38.91-.72,1.28-1.06l.66-.62A22.25,22.25,0,0,1,85,13.88a24.13,24.13,0,0,1,3.79-2,8.56,8.56,0,0,1,4.19-.51l.3,0c3,.18,6.19.1,9.25,0l4.6-.09a16.07,16.07,0,0,0,1.68-.15c2.18-.28,4.66-.57,6,.63a2.72,2.72,0,0,1,.94,2,2.78,2.78,0,0,1-.47,1.51,2.65,2.65,0,0,0-.17.36s.07.07.11.14a2.4,2.4,0,0,1,.47,1.87,10.08,10.08,0,0,1-.27,1.12,7.32,7.32,0,0,0-.28,1.36,4,4,0,0,0,.12,1.1,1.19,1.19,0,0,1-2.31.56,6.27,6.27,0,0,1-.19-1.74,9,9,0,0,1,.36-1.91,8.55,8.55,0,0,0,.22-.91l-.1-.12a2.65,2.65,0,0,1-.52-1.48,3,3,0,0,1,.48-1.51,1.87,1.87,0,0,0,.16-.32.37.37,0,0,0-.1-.28c-.6-.52-2.94-.23-4.19-.06-.74.08-1.43.17-2,.17-1.51,0-3,0-4.56.08-3.1.08-6.31.16-9.45,0l-.3,0a5.91,5.91,0,0,0-3.21.36,21.49,21.49,0,0,0-3.38,1.77,19.68,19.68,0,0,0-3.08,2.54l-.68.64c-.41.36-.89.76-1.41,1.16-1.19.95-2.54,2-3,3.1,0,.09-.06.36-.09.55a2.9,2.9,0,0,1-1,2.23,13.67,13.67,0,0,0-1.57,1.33c-.26.23-.51.47-.79.71a13.41,13.41,0,0,1-2.66,1.69,17.77,17.77,0,0,0-1.56.91L70.1,31a4.35,4.35,0,0,0-.95.71,4.69,4.69,0,0,0,.17.44,2.27,2.27,0,0,1,1.2-.27c1.38.11,2.07,1.69,2.09,2.72a4.42,4.42,0,0,1-1.25,2.87c-.46.61-.75,1-.73,1.38a6.82,6.82,0,0,0,.27,1.06c.42,1.49,1.21,4.26-1.15,5.29a3.63,3.63,0,0,1-1.8.22,3.12,3.12,0,0,0-.7,0,10.16,10.16,0,0,1-2,1.53l-.26.16a4.2,4.2,0,0,0-1.13.84l-.14.25a2.23,2.23,0,0,1-1.57,1.24l-1,.19a6.78,6.78,0,0,0-1.37.27l-.72.25a7.43,7.43,0,0,1-2.75.61l-1.53-.12a11.7,11.7,0,0,0-2.7-.06,6.8,6.8,0,0,0-1.3.36,3.67,3.67,0,0,1-4.23-.6,3.45,3.45,0,0,0-2.24-1l-3.7-.7a2.79,2.79,0,0,0-.86.08,4.65,4.65,0,0,1-1.63.12c-3.06-.45-6.48.13-10.8,1.86l-.39.17a6.48,6.48,0,0,1,0,1.44,2.68,2.68,0,0,1,.84.28c1.7.89,1.37,2.58,1.23,3.4l-.06.33a1.78,1.78,0,0,0,.24,1.36c.09.2.19.4.29.64,1,2.47-.95,3.58-2,4.17a5.62,5.62,0,0,0-1,.69,4.79,4.79,0,0,0-.57.88,5.33,5.33,0,0,1-1.22,1.65,10.17,10.17,0,0,1-1.86,1.16,9.56,9.56,0,0,0-1.51.91c-.35.29-.66.6-1,.93a12.48,12.48,0,0,1-1.84,1.58,8.83,8.83,0,0,1-1.27.64,10.1,10.1,0,0,0-1.35.69v4.1l.3,0a10.15,10.15,0,0,1,1.32-.09l60.31,0a18,18,0,0,1,5.83.69,4.17,4.17,0,0,1,1.69,1.29,1.83,1.83,0,0,0,.22.24,2.48,2.48,0,0,0,.75.38A4,4,0,0,1,89,82.79c0,.26,0,.52,0,.77a3.42,3.42,0,0,0,1.4,2.74l.48.5c.11.12.36.16.78.18a3,3,0,0,1,1.66.51,4.12,4.12,0,0,1,1.15,1.93,13.58,13.58,0,0,0,2.18,1.28c.35.19.64.34.82.46l5.77,3.52c.22.14.47.26.71.39a6.59,6.59,0,0,1,2.24,1.65,2.86,2.86,0,0,1,.58,2.34c.11-.19.22-.36.35-.55a4.89,4.89,0,0,1,.76-.8c.28-.26.46-.44.49-.57s-.16-.19-.25-.36a2.65,2.65,0,0,1-.51-1.94,1.29,1.29,0,0,1,.53-.74l.61-.33c.38-.21,1.38-.76,2-1.16-.89-2-.59-4.37-.32-6.52.07-.65.14-1.28.19-1.85s0-1,.07-1.52a1.19,1.19,0,1,1,2.38.1c0,.52,0,1-.08,1.57s-.12,1.28-.2,2c-.25,2-.54,4.35.38,5.67a1.38,1.38,0,0,1,.2,1.07c-.18.77-1,1.37-3.11,2.54a2.74,2.74,0,0,1,.49,1.85,3.18,3.18,0,0,1-.08.33c.6-.23,1.23-.42,1.88-.61a29.76,29.76,0,0,1,8.44-1,12.34,12.34,0,0,0,4.2-1,19.72,19.72,0,0,1,3.54-1,2.55,2.55,0,0,1,2.13.56,1.52,1.52,0,0,0,.48.28,4,4,0,0,0,2,.07,7.23,7.23,0,0,1,2.53.06,1.21,1.21,0,0,1,.9,1.17c0,2.06-2.81,2.93-4.14,3.35l-1.28.39c-1,.3-1.92.61-2.91.88-.44.12-.88.26-1.31.36a7,7,0,0,0-1.56.73,12.84,12.84,0,0,1-1.79.84,13.85,13.85,0,0,1-3.81.63,3.59,3.59,0,0,0-1.27.39,3.11,3.11,0,0,1-2.35.36,13,13,0,0,0-2.6.72c-.57.2-1.09.36-1.45.45-1.32.31-2.68.55-4,.79l-.9.14-2.39.49a3.09,3.09,0,0,1-1,.2m2.43-5.81c0,.11,0,.24-.08.38s-.08.29-.13.43a3.69,3.69,0,0,0-.1.39,2.23,2.23,0,0,0,0,.64,2.28,2.28,0,0,1,0,1.11l.83-.15.9-.17c1.28-.22,2.6-.47,3.88-.76.3-.08.73-.22,1.21-.39,1.86-.63,3.15-1,4.11-.72.06,0,.39-.17.63-.27a5.66,5.66,0,0,1,2.15-.6,12.65,12.65,0,0,0,3.16-.51,8.2,8.2,0,0,0,1.37-.67,8.86,8.86,0,0,1,2.14-1c.42-.1.83-.23,1.24-.34,1-.27,1.91-.56,2.86-.86l.85-.27a5.26,5.26,0,0,1-1-.26,3.82,3.82,0,0,1-1.06-.63l-.16-.11-.18,0a17.92,17.92,0,0,0-3.09.88,14.49,14.49,0,0,1-5,1.11,27,27,0,0,0-7.78.94,18.26,18.26,0,0,0-5.06,2.16,1.18,1.18,0,0,1-1.31,0,1,1,0,0,1-.37-.38"/><path class="cls-1" d="M109.92,28.12l5.66,9v-9a4,4,0,0,1,2.16-.45,4,4,0,0,1,2.19.45V43.73a3.93,3.93,0,0,1-2.17.45,4.05,4.05,0,0,1-2.11-.41l-5.68-9v9a4,4,0,0,1-2.18.45,4,4,0,0,1-2.15-.45V28.14a3.75,3.75,0,0,1,2.16-.45,4,4,0,0,1,2.12.43"/><path class="cls-1" d="M131.46,37h-4.12v4h6a2.4,2.4,0,0,1,.45,1.57,2.49,2.49,0,0,1-.45,1.61H123V27.69h9.84a2.41,2.41,0,0,1,.47,1.6,2.47,2.47,0,0,1-.47,1.6h-5.49v2.93h4.12a2.58,2.58,0,0,1,.44,1.6,2.36,2.36,0,0,1-.44,1.59"/><path class="cls-1" d="M139,43.73l-4.45-15.59a4.14,4.14,0,0,1,2.19-.45,3.89,3.89,0,0,1,2.17.45l2.24,7.91c.16.59.24,1,.3,1.29,0-.06.12-.72.26-1.27l1.95-7.93a3.84,3.84,0,0,1,1.82-.45,3.43,3.43,0,0,1,1.71.45l1.87,7.91.3,1.29a7.21,7.21,0,0,1,.29-1.27L152,28.14a3.93,3.93,0,0,1,2.13-.45,4.2,4.2,0,0,1,2.2.45l-4.52,15.59a4.26,4.26,0,0,1-2.08.45,4,4,0,0,1-2.26-.45L145.7,36.5c-.14-.54-.23-1.13-.25-1.25l-.29,1.25-1.76,7.23a3.93,3.93,0,0,1-2.17.45,4.14,4.14,0,0,1-2.19-.45"/><path class="cls-1" d="M164.18,28.12l1.94,3.4a12.07,12.07,0,0,1,1.06,2.6,10.62,10.62,0,0,1,1.06-2.6l2-3.4a3.62,3.62,0,0,1,2-.43,3.88,3.88,0,0,1,2.31.55l-5.21,9v6.51a5.39,5.39,0,0,1-4.31,0V37.17l-5.2-8.93a4,4,0,0,1,2.33-.55,3.8,3.8,0,0,1,2,.43"/><path class="cls-1" d="M182.43,44.34c-5.55,0-8-3.25-8-8.38s2.43-8.43,8-8.43,8,3.29,8,8.43-2.45,8.38-8,8.38m0-3.18c2.35,0,3.63-2.12,3.63-5.2s-1.28-5.23-3.63-5.23-3.62,2.15-3.62,5.23,1.27,5.2,3.62,5.2"/><path class="cls-1" d="M197.09,43.73a4,4,0,0,1-2.18.45,3.85,3.85,0,0,1-2.15-.45V28.35a12.93,12.93,0,0,1,5-.82c4.92,0,7.21,1.88,7.21,5.18a4.77,4.77,0,0,1-2.81,4.59L206,43.63a6.28,6.28,0,0,1-2.64.55,5.32,5.32,0,0,1-2-.41l-2.87-5a.9.9,0,0,0-.81-.61h-.57Zm1.23-13a5.33,5.33,0,0,0-1.23.14V35h1.18a2.15,2.15,0,0,0,2.38-2.11,2.09,2.09,0,0,0-2.33-2.12"/><path class="cls-1" d="M222.66,43.6a6.74,6.74,0,0,1-2.89.58,4.32,4.32,0,0,1-2.17-.41L212,36.19v7.54a3.75,3.75,0,0,1-2.14.45,4,4,0,0,1-2.18-.45V28.14a4,4,0,0,1,2.18-.45,3.83,3.83,0,0,1,2.14.45v7.32l5.39-7.34a4.16,4.16,0,0,1,2.17-.43,4,4,0,0,1,2.46.59l-5.26,7.18Z"/><path class="cls-1" d="M113.18,51.35a1.28,1.28,0,0,1-.64,1.47,4.8,4.8,0,0,0-2.45-.66c-1.19,0-2,.52-2,1.34s.56.93,1.9,1.41l1.52.52c1.65.59,2.48,1.33,2.48,2.84,0,1.91-1.36,3.3-4.25,3.3A6,6,0,0,1,106,60.44a1.41,1.41,0,0,1,.59-1.45A6.65,6.65,0,0,0,110,60c1.2,0,2-.52,2-1.41,0-.6-.4-1-1.18-1.21l-2.48-.81A2.9,2.9,0,0,1,106,53.81c0-2,1.38-3.22,4-3.22a5.67,5.67,0,0,1,3.1.76"/><path class="cls-1" d="M114.94,52.27a1.29,1.29,0,0,1-.21-.8,1.21,1.21,0,0,1,.21-.77h8a1.18,1.18,0,0,1,.21.77,1.29,1.29,0,0,1-.21.8h-3v9a1.87,1.87,0,0,1-1,.21,2,2,0,0,1-1.07-.21v-9Z"/><path class="cls-1" d="M128.72,50.91l4.3,10.3a1.9,1.9,0,0,1-1.09.25,1.83,1.83,0,0,1-1-.21l-1-2.31h-4.5l-1,2.31a1.73,1.73,0,0,1-1,.21,2,2,0,0,1-1.12-.25l4.31-10.3a1.79,1.79,0,0,1,1-.21,2,2,0,0,1,1,.21m-2.67,6.48h3.24l-1.23-2.93a11.09,11.09,0,0,1-.39-1.1c0,.07-.23.74-.37,1.1Z"/><path class="cls-1" d="M132.36,52.27a1.29,1.29,0,0,1-.21-.8,1.21,1.21,0,0,1,.21-.77h8a1.14,1.14,0,0,1,.22.77,1.26,1.26,0,0,1-.22.8h-3v9a1.81,1.81,0,0,1-1,.21,2,2,0,0,1-1.07-.21v-9Z"/><path class="cls-1" d="M147.51,56.51h-3.26v3.4h4.44a1.2,1.2,0,0,1,.2.76,1.32,1.32,0,0,1-.2.79h-6.56V50.7h6.24a1.22,1.22,0,0,1,.2.77,1.31,1.31,0,0,1-.2.78h-4.12V55h3.26a1.08,1.08,0,0,1,.22.75,1.22,1.22,0,0,1-.22.8"/><path class="cls-1" d="M158.48,61.57c-3.6,0-5-2.15-5-5.48s1.43-5.5,5-5.5,5,2.19,5,5.5-1.45,5.48-5,5.48m0-1.56c1.92,0,2.89-1.58,2.89-3.92s-1-4-2.89-4-2.91,1.62-2.91,4,1,3.92,2.91,3.92"/><path class="cls-1" d="M170.73,56.51h-3.26v4.74a1.94,1.94,0,0,1-1.06.21,2,2,0,0,1-1.06-.21V50.7h6.22a1.14,1.14,0,0,1,.22.77,1.22,1.22,0,0,1-.22.78h-4.1V55h3.26a1.08,1.08,0,0,1,.22.75,1.22,1.22,0,0,1-.22.8"/><path class="cls-1" d="M111,76.14c-3.6,0-5-2.15-5-5.47s1.43-5.5,5-5.5,5,2.17,5,5.5-1.45,5.47-5,5.47m0-1.56c1.92,0,2.89-1.57,2.89-3.91s-1-4-2.89-4-2.9,1.62-2.9,4,1,3.91,2.9,3.91"/><path class="cls-1" d="M121.33,71.94H120v3.88a2.09,2.09,0,0,1-1.07.21,2.11,2.11,0,0,1-1.08-.21V65.67a8.51,8.51,0,0,1,3.24-.5c2.86,0,4.27,1.27,4.27,3.28s-1.53,3.49-4,3.49m0-5.23a3.63,3.63,0,0,0-1.31.16V70.4h1.16a1.82,1.82,0,0,0,2.08-1.86,1.72,1.72,0,0,0-1.93-1.83"/><path class="cls-1" d="M130.5,71.94h-1.34v3.88a2,2,0,0,1-1.06.21,2.15,2.15,0,0,1-1.08-.21V65.67a8.41,8.41,0,0,1,3.23-.5c2.86,0,4.28,1.27,4.28,3.28s-1.53,3.49-4,3.49m0-5.23a3.73,3.73,0,0,0-1.32.16V70.4h1.17a1.82,1.82,0,0,0,2.07-1.86,1.71,1.71,0,0,0-1.92-1.83"/><path class="cls-1" d="M140.77,76.14c-3.6,0-5-2.15-5-5.47s1.43-5.5,5-5.5,5,2.17,5,5.5-1.44,5.47-5,5.47m0-1.56c1.93,0,2.89-1.57,2.89-3.91s-1-4-2.89-4-2.9,1.62-2.9,4,1,3.91,2.9,3.91"/><path class="cls-1" d="M149.76,75.82a2.09,2.09,0,0,1-1.09.21,2,2,0,0,1-1-.21V65.66a8.79,8.79,0,0,1,3.1-.49c3.08,0,4.43,1.27,4.43,3.31A3,3,0,0,1,153,71.54l2.76,4.23a3.15,3.15,0,0,1-1.29.26,2.76,2.76,0,0,1-1-.18l-2.22-3.51a.7.7,0,0,0-.64-.41h-.79Zm1.16-9.11a4,4,0,0,0-1.16.16v3.51h1.54A1.66,1.66,0,0,0,153,68.53c0-1-.63-1.82-2.09-1.82"/><path class="cls-1" d="M156.26,66.83a1.24,1.24,0,0,1-.21-.79,1.3,1.3,0,0,1,.21-.78h8.05a1.23,1.23,0,0,1,.21.78,1.24,1.24,0,0,1-.21.79h-3v9a1.87,1.87,0,0,1-1.05.21,2.06,2.06,0,0,1-1.08-.21v-9Z"/><path class="cls-1" d="M172.2,71.54V65.48a2,2,0,0,1,1.08-.22,1.89,1.89,0,0,1,1.05.22v5.68c0,3-.81,5-4.22,5s-4.22-1.94-4.22-5V65.48a2,2,0,0,1,1.06-.22,2,2,0,0,1,1.08.22v6.06c0,1.94.52,3,2.08,3s2.09-1.1,2.09-3"/><path class="cls-1" d="M178.66,65.48l4.65,7.17V65.48a1.87,1.87,0,0,1,1.06-.22,2,2,0,0,1,1.06.22V75.82a1.94,1.94,0,0,1-1.06.21,2,2,0,0,1-1-.19l-4.66-7.14v7.12a2.83,2.83,0,0,1-2.14,0V65.48a1.91,1.91,0,0,1,1.06-.22,2,2,0,0,1,1.06.22"/><path class="cls-1" d="M189.87,65.48V75.82a2,2,0,0,1-1.07.21,2.09,2.09,0,0,1-1.07-.21V65.48a2.71,2.71,0,0,1,2.14,0"/><path class="cls-1" d="M191.56,66.83a1.21,1.21,0,0,1-.22-.79,1.26,1.26,0,0,1,.22-.78h8a1.19,1.19,0,0,1,.22.78,1.21,1.21,0,0,1-.22.79h-3v9a1.81,1.81,0,0,1-1,.21,2,2,0,0,1-1.07-.21v-9Z"/><path class="cls-1" d="M202.39,65.48l1.64,2.9a13,13,0,0,1,.74,1.64,9.9,9.9,0,0,1,.73-1.64l1.69-2.9a1.67,1.67,0,0,1,1-.22,1.8,1.8,0,0,1,1.11.27l-3.47,6v4.29a1.94,1.94,0,0,1-1.06.21,2,2,0,0,1-1.05-.21V71.5l-3.48-6a2,2,0,0,1,1.15-.27,1.75,1.75,0,0,1,1,.22"/><path class="cls-1" d="M208.46,74.14a.15.15,0,0,1,0-.12.19.19,0,0,1,0-.13h1.65a.19.19,0,0,1,0,.13.15.15,0,0,1,0,.12h-.64v2a.41.41,0,0,1-.17,0,.38.38,0,0,1-.18,0v-2Z"/><path class="cls-1" d="M211.69,76a.38.38,0,0,1-.15,0,.29.29,0,0,1-.14,0l-.5-1.27a1.61,1.61,0,0,1-.08-.23s0,.19,0,.24l-.09,1.36a.36.36,0,0,1-.17,0,.46.46,0,0,1-.19,0l.18-2.2s0,0,.17,0a.3.3,0,0,1,.18,0l.58,1.48.08.24s.06-.17.08-.24l.59-1.48a.34.34,0,0,1,.18,0,.29.29,0,0,1,.17,0l.18,2.2a.38.38,0,0,1-.18,0,.36.36,0,0,1-.17,0l-.1-1.36,0-.24a1.59,1.59,0,0,1-.08.22Z"/></svg>